<svg xmlns="http://www.w3.org/2000/svg" viewBox="0 0 175.1 40.4"><path d="m54.4 27.7-.7.3-1.3.1a3 3 0 0 1-2.6-1.1 4 4 0 0 1-.8-2.9v-6.8h-1.5V14H49v-2.5l3.1-1.4v4h2.4v3H52v6.5a1 1 0 0 0 .3 1l.9.2.8-.1.8-.5Zm4.8.2L55.6 14H59l2 8.5 2-8.5h3.3l2 8.5 2-8.5h3.4l-3.9 14h-3.3l-2-7.3-2 7.3Zm18.5-5.1.4 1 .6.6.7.4 1 .1 1-.2 1-.7 2 2a5 5 0 0 1-4.2 2.1 5 5 0 0 1-4.2-1.7 8 8 0 0 1-1.5-5.2 10 10 0 0 1 .5-3 7 7 0 0 1 1.2-2.4 5 5 0 0 1 1.8-1.4 5 5 0 0 1 2.3-.5 6 6 0 0 1 2.2.4 5 5 0 0 1 1.7 1.3 6 6 0 0 1 1.1 2.2 10 10 0 0 1 .4 3v2Zm2.6-5.8a2 2 0 0 0-1.8.8 3 3 0 0 0-.8 2h4.8a4 4 0 0 0-.7-2 2 2 0 0 0-1.5-.8M91 22.8l.4 1 .6.6a3 3 0 0 0 1.6.5l1.2-.2.9-.7 2.1 2a5 5 0 0 1-4.2 2.1 5 5 0 0 1-4.3-1.7 8 8 0 0 1-1.4-5.2 10 10 0 0 1 .4-3 7 7 0 0 1 1.2-2.4 5 5 0 0 1 1.8-1.4 5 5 0 0 1 2.3-.5 6 6 0 0 1 2.2.4 5 5 0 0 1 1.8 1.3 6 6 0 0 1 1 2.2 10 10 0 0 1 .5 3v1.4l-.1.6Zm2.6-5.8a2 2 0 0 0-1.7.8 3 3 0 0 0-.9 2h5a4 4 0 0 0-.7-2 2 2 0 0 0-1.6-.8m15.6 10-1.1.8a3 3 0 0 1-1.8.4 5 5 0 0 1-2-.5 5 5 0 0 1-1.6-1.4 7 7 0 0 1-1-2.3l-.3-2.8.3-2.8a6 6 0 0 1 1-2.4 5 5 0 0 1 1.7-1.5 4 4 0 0 1 2.1-.6l1.6.2 1.1.6V11l3.2-1.4v18.2h-3.2zm0-7.9-.9-1.2a2 2 0 0 0-1.3-.5 2 2 0 0 0-2 1 6 6 0 0 0-.5 2.8 5 5 0 0 0 .6 2.7 2 2 0 0 0 1.9 1 2 2 0 0 0 1.4-.5l.8-1.3Zm9 3.7.4 1 .6.6.8.4.9.1 1-.2 1-.7 2.1 2a5 5 0 0 1-4.2 2.2 5 5 0 0 1-4.2-1.8 8 8 0 0 1-1.5-5.1 11 11 0 0 1 .4-3.1 7 7 0 0 1 1.2-2.3 5 5 0 0 1 1.8-1.5 5 5 0 0 1 2.3-.5 6 6 0 0 1 2.2.4 5 5 0 0 1 1.8 1.4 6 6 0 0 1 1 2.1 10 10 0 0 1 .4 3.1v1.9ZM121 17a2 2 0 0 0-1.7.8 4 4 0 0 0-.9 2h4.9a4 4 0 0 0-.8-2 2 2 0 0 0-1.5-.8m19.7 13.3a4 4 0 0 0 2-.9 3 3 0 0 0 1-2l-1 .5-1.4.1a5 5 0 0 1-2.3-.5 5 5 0 0 1-1.7-1.6l-.9-2.3-.3-2.8a8 8 0 0 1 .4-2.7 7 7 0 0 1 1.1-2.2 6 6 0 0 1 1.7-1.4 5 5 0 0 1 2-.6 4 4 0 0 1 2.5.8v-.6h3.1v12.5l-.4 2.4a7 7 0 0 1-1 2.2 6 6 0 0 1-1.8 1.6 7 7 0 0 1-2.4.8Zm3-11.8-.7-1-1.1-.4a2 2 0 0 0-2 1 5 5 0 0 0-.6 2.8 7 7 0 0 0 .5 3 2 2 0 0 0 1.8 1 2 2 0 0 0 2-1.2Zm11.6 9.6a5 5 0 0 1-2.3-.5 6 6 0 0 1-2-1.6 7 7 0 0 1-1.1-2.3 10 10 0 0 1 0-5.6 7 7 0 0 1 1.1-2.2 6 6 0 0 1 1.8-1.5 5 5 0 0 1 4.6 0 5 5 0 0 1 1.7 1.5 7 7 0 0 1 1.2 2.3 10 10 0 0 1 0 5.5 7 7 0 0 1-1.2 2.3 6 6 0 0 1-1.7 1.5 4 4 0 0 1-2.3.5m0-3.2a2 2 0 0 0 1.8-1.1 7 7 0 0 0 0-5.6 2 2 0 0 0-2.9-.7l-.7.7a6 6 0 0 0 0 5.6 2 2 0 0 0 1.8 1m8.2-13.9 3.2-1.4V28h-3.2Zm9.4 6.3v10.6h-3.1V17.3h-1.3V14h1.3v-.4a5 5 0 0 1 1-3.2 4 4 0 0 1 2.8-1h.9l.7.1v3l-.6-.2h-.6a1 1 0 0 0-1 .3l-.3 1v.5h2.5v3ZM20.3 0a20.2 20.2 0 1 0 20.1 20.3v-.1A20 20 0 0 0 20.3 0m-10 29.7H7.5c1.7-1.4 4.2-4.4 5.2-9.9 1.2-6.2 5.8-9.6 10-9-3.5 1-6.3 4.4-7.2 9a16 16 0 0 1-5 9.7Zm.7 0a17 17 0 0 0 5-9.8c.9-4.5 3.6-8 7.2-8.8a7 7 0 0 1 7.5 2.7 6 6 0 0 1 1.4 5.3 6 6 0 0 1-2.4 3.5l.2-.8a2.6 2.6 0 1 0-5.1-.1v.1s-.3 5.7 8.2 7.9Zm14.9-9.5a2 2 0 0 1 2.9.1 6 6 0 0 1-2.8 3 2.4 2.4 0 0 0-.1-3.1" style="fill:#48e070"/></svg>